#define debug_width 10
#define debug_height 10
static unsigned char debug_bits[] = {
0x01, 0x02, 
0x02, 0x00, 
0x04, 0x00, 
0x08, 0x00, 
0x10, 0x00, 
0x20, 0x00, 
0x40, 0x00, 
0x80, 0x00, 
0x00, 0x01, 
0x00, 0x02
};
